<mxfile host="app.diagrams.net" modified="2021-08-02T02:51:00.618Z" agent="5.0 (Windows NT 6.1; WOW64) AppleWebKit/537.36 (KHTML, like Gecko) Chrome/75.0.3760.0 Safari/537.36" etag="nhczuoa8A400r2cgg-cz" version="14.9.3" type="github">
  <diagram id="kgpKYQtTHZ0yAKxKKP6v" name="Page-1">
    <mxGraphModel dx="1084" dy="536" grid="0" gridSize="10" guides="1" tooltips="1" connect="1" arrows="1" fold="1" page="0" pageScale="1" pageWidth="850" pageHeight="1100" math="0" shadow="0">
      <root>
        <mxCell id="0" />
        <mxCell id="1" parent="0" />
        <mxCell id="3nuBFxr9cyL0pnOWT2aG-1" value="InputManagerService" style="shape=umlLifeline;perimeter=lifelinePerimeter;container=1;collapsible=0;recursiveResize=0;rounded=0;shadow=0;strokeWidth=1;" parent="1" vertex="1">
          <mxGeometry x="90" y="80" width="130" height="440" as="geometry" />
        </mxCell>
        <mxCell id="3nuBFxr9cyL0pnOWT2aG-2" value="" style="points=[];perimeter=orthogonalPerimeter;rounded=0;shadow=0;strokeWidth=1;" parent="3nuBFxr9cyL0pnOWT2aG-1" vertex="1">
          <mxGeometry x="60" y="65" width="10" height="65" as="geometry" />
        </mxCell>
        <mxCell id="3nuBFxr9cyL0pnOWT2aG-5" value="com_android_server_&#xa;input_InputManagerService" style="shape=umlLifeline;perimeter=lifelinePerimeter;container=1;collapsible=0;recursiveResize=0;rounded=0;shadow=0;strokeWidth=1;verticalAlign=middle;" parent="1" vertex="1">
          <mxGeometry x="240" y="80" width="150" height="440" as="geometry" />
        </mxCell>
        <mxCell id="3nuBFxr9cyL0pnOWT2aG-6" value="" style="points=[];perimeter=orthogonalPerimeter;rounded=0;shadow=0;strokeWidth=1;" parent="3nuBFxr9cyL0pnOWT2aG-5" vertex="1">
          <mxGeometry x="70" y="80" width="10" height="80" as="geometry" />
        </mxCell>
        <mxCell id="IxxCCvmzfHfjZeHsE3GJ-2" value="new&amp;nbsp; InputManager" style="html=1;verticalAlign=bottom;endArrow=block;entryX=0.1;entryY=0.138;entryDx=0;entryDy=0;entryPerimeter=0;" parent="3nuBFxr9cyL0pnOWT2aG-5" target="IxxCCvmzfHfjZeHsE3GJ-1" edge="1">
          <mxGeometry width="80" relative="1" as="geometry">
            <mxPoint x="80" y="100" as="sourcePoint" />
            <mxPoint x="160" y="100" as="targetPoint" />
          </mxGeometry>
        </mxCell>
        <mxCell id="3nuBFxr9cyL0pnOWT2aG-8" value="nativeInit" style="verticalAlign=bottom;endArrow=block;entryX=0;entryY=0;shadow=0;strokeWidth=1;" parent="1" source="3nuBFxr9cyL0pnOWT2aG-2" target="3nuBFxr9cyL0pnOWT2aG-6" edge="1">
          <mxGeometry relative="1" as="geometry">
            <mxPoint x="275" y="160" as="sourcePoint" />
          </mxGeometry>
        </mxCell>
        <mxCell id="JCbw3N3qahz2SXzYvkf4-1" value="" style="points=[];perimeter=orthogonalPerimeter;rounded=0;shadow=0;strokeWidth=1;" parent="1" vertex="1">
          <mxGeometry x="150" y="260" width="10" height="65" as="geometry" />
        </mxCell>
        <mxCell id="JCbw3N3qahz2SXzYvkf4-2" value="" style="points=[];perimeter=orthogonalPerimeter;rounded=0;shadow=0;strokeWidth=1;" parent="1" vertex="1">
          <mxGeometry x="310" y="260" width="10" height="65" as="geometry" />
        </mxCell>
        <mxCell id="JCbw3N3qahz2SXzYvkf4-5" value="start" style="verticalAlign=bottom;endArrow=block;shadow=0;strokeWidth=1;" parent="1" edge="1">
          <mxGeometry relative="1" as="geometry">
            <mxPoint x="160" y="262.0000000000001" as="sourcePoint" />
            <mxPoint x="310" y="262" as="targetPoint" />
          </mxGeometry>
        </mxCell>
        <mxCell id="JCbw3N3qahz2SXzYvkf4-8" value="InputManager" style="shape=umlLifeline;perimeter=lifelinePerimeter;whiteSpace=wrap;html=1;container=1;collapsible=0;recursiveResize=0;outlineConnect=0;verticalAlign=middle;" parent="1" vertex="1">
          <mxGeometry x="408" y="80" width="100" height="440" as="geometry" />
        </mxCell>
        <mxCell id="IxxCCvmzfHfjZeHsE3GJ-1" value="" style="html=1;points=[];perimeter=orthogonalPerimeter;" parent="JCbw3N3qahz2SXzYvkf4-8" vertex="1">
          <mxGeometry x="45" y="90" width="10" height="80" as="geometry" />
        </mxCell>
        <mxCell id="IxxCCvmzfHfjZeHsE3GJ-3" value="" style="html=1;points=[];perimeter=orthogonalPerimeter;" parent="JCbw3N3qahz2SXzYvkf4-8" vertex="1">
          <mxGeometry x="50" y="130" width="10" height="40" as="geometry" />
        </mxCell>
        <mxCell id="IxxCCvmzfHfjZeHsE3GJ-4" value="&lt;span style=&quot;font-size: 11px&quot;&gt;initialize&lt;/span&gt;&lt;br&gt;&lt;span style=&quot;font-size: 11px&quot;&gt;这里会创建InputReaderThread&lt;br&gt;和InputDispatcherThread&lt;/span&gt;" style="edgeStyle=orthogonalEdgeStyle;html=1;align=left;spacingLeft=2;endArrow=block;rounded=0;entryX=1;entryY=0;" parent="JCbw3N3qahz2SXzYvkf4-8" target="IxxCCvmzfHfjZeHsE3GJ-3" edge="1">
          <mxGeometry relative="1" as="geometry">
            <mxPoint x="55" y="110" as="sourcePoint" />
            <Array as="points">
              <mxPoint x="85" y="110" />
            </Array>
          </mxGeometry>
        </mxCell>
        <mxCell id="JCbw3N3qahz2SXzYvkf4-13" value="" style="points=[];perimeter=orthogonalPerimeter;rounded=0;shadow=0;strokeWidth=1;" parent="1" vertex="1">
          <mxGeometry x="453" y="310" width="10" height="110" as="geometry" />
        </mxCell>
        <mxCell id="JCbw3N3qahz2SXzYvkf4-12" value="start" style="html=1;verticalAlign=bottom;endArrow=block;entryX=-0.3;entryY=0.082;entryDx=0;entryDy=0;entryPerimeter=0;exitX=1.033;exitY=0.908;exitDx=0;exitDy=0;exitPerimeter=0;" parent="1" source="JCbw3N3qahz2SXzYvkf4-2" target="JCbw3N3qahz2SXzYvkf4-13" edge="1">
          <mxGeometry width="80" relative="1" as="geometry">
            <mxPoint x="308" y="320" as="sourcePoint" />
            <mxPoint x="462.28999999999996" y="318.58000000000015" as="targetPoint" />
          </mxGeometry>
        </mxCell>
        <mxCell id="IxxCCvmzfHfjZeHsE3GJ-8" value="InputDispatcher" style="shape=umlLifeline;perimeter=lifelinePerimeter;whiteSpace=wrap;html=1;container=1;collapsible=0;recursiveResize=0;outlineConnect=0;" parent="1" vertex="1">
          <mxGeometry x="670" y="80" width="100" height="440" as="geometry" />
        </mxCell>
        <mxCell id="IxxCCvmzfHfjZeHsE3GJ-9" value="" style="html=1;points=[];perimeter=orthogonalPerimeter;" parent="IxxCCvmzfHfjZeHsE3GJ-8" vertex="1">
          <mxGeometry x="45" y="260" width="10" height="80" as="geometry" />
        </mxCell>
        <mxCell id="IxxCCvmzfHfjZeHsE3GJ-10" value="执行&lt;span style=&quot;text-align: left&quot;&gt;InputDispatcherThread的threadLoop&lt;br&gt;然后执行dispatchOnce&lt;/span&gt;" style="html=1;verticalAlign=bottom;endArrow=block;exitX=1;exitY=0.6;exitDx=0;exitDy=0;exitPerimeter=0;" parent="1" edge="1">
          <mxGeometry y="9" width="80" relative="1" as="geometry">
            <mxPoint x="464" y="349" as="sourcePoint" />
            <mxPoint x="716" y="349" as="targetPoint" />
            <mxPoint as="offset" />
          </mxGeometry>
        </mxCell>
        <mxCell id="IxxCCvmzfHfjZeHsE3GJ-11" value="InputReader" style="shape=umlLifeline;perimeter=lifelinePerimeter;whiteSpace=wrap;html=1;container=1;collapsible=0;recursiveResize=0;outlineConnect=0;" parent="1" vertex="1">
          <mxGeometry x="820" y="80" width="100" height="440" as="geometry" />
        </mxCell>
        <mxCell id="IxxCCvmzfHfjZeHsE3GJ-12" value="" style="html=1;points=[];perimeter=orthogonalPerimeter;" parent="IxxCCvmzfHfjZeHsE3GJ-11" vertex="1">
          <mxGeometry x="45" y="300" width="10" height="80" as="geometry" />
        </mxCell>
        <mxCell id="IxxCCvmzfHfjZeHsE3GJ-13" value="loopOnce" style="html=1;verticalAlign=bottom;endArrow=block;exitX=0.7;exitY=0.727;exitDx=0;exitDy=0;exitPerimeter=0;" parent="1" edge="1">
          <mxGeometry x="0.635" y="10" width="80" relative="1" as="geometry">
            <mxPoint x="463" y="389.97" as="sourcePoint" />
            <mxPoint x="863" y="390" as="targetPoint" />
            <mxPoint as="offset" />
          </mxGeometry>
        </mxCell>
        <mxCell id="vd4vNPMVGQsWvPr2XeSt-1" value="InputReader" style="shape=umlLifeline;perimeter=lifelinePerimeter;whiteSpace=wrap;html=1;container=1;collapsible=0;recursiveResize=0;outlineConnect=0;" vertex="1" parent="1">
          <mxGeometry x="110" y="600" width="100" height="600" as="geometry" />
        </mxCell>
        <mxCell id="vd4vNPMVGQsWvPr2XeSt-2" value="" style="html=1;points=[];perimeter=orthogonalPerimeter;" vertex="1" parent="vd4vNPMVGQsWvPr2XeSt-1">
          <mxGeometry x="45" y="60" width="10" height="460" as="geometry" />
        </mxCell>
        <mxCell id="vd4vNPMVGQsWvPr2XeSt-13" value="" style="html=1;points=[];perimeter=orthogonalPerimeter;" vertex="1" parent="vd4vNPMVGQsWvPr2XeSt-1">
          <mxGeometry x="50" y="220" width="10" height="80" as="geometry" />
        </mxCell>
        <mxCell id="vd4vNPMVGQsWvPr2XeSt-14" value="processEventsLocked" style="edgeStyle=orthogonalEdgeStyle;html=1;align=left;spacingLeft=2;endArrow=block;rounded=0;entryX=1;entryY=0;" edge="1" target="vd4vNPMVGQsWvPr2XeSt-13" parent="vd4vNPMVGQsWvPr2XeSt-1">
          <mxGeometry relative="1" as="geometry">
            <mxPoint x="55" y="200" as="sourcePoint" />
            <Array as="points">
              <mxPoint x="85" y="200" />
            </Array>
          </mxGeometry>
        </mxCell>
        <mxCell id="vd4vNPMVGQsWvPr2XeSt-15" value="" style="html=1;points=[];perimeter=orthogonalPerimeter;" vertex="1" parent="vd4vNPMVGQsWvPr2XeSt-1">
          <mxGeometry x="55" y="260" width="10" height="40" as="geometry" />
        </mxCell>
        <mxCell id="vd4vNPMVGQsWvPr2XeSt-16" value="processEventsForDeviceLocked" style="edgeStyle=orthogonalEdgeStyle;html=1;align=left;spacingLeft=2;endArrow=block;rounded=0;entryX=1;entryY=0;" edge="1" target="vd4vNPMVGQsWvPr2XeSt-15" parent="vd4vNPMVGQsWvPr2XeSt-1">
          <mxGeometry relative="1" as="geometry">
            <mxPoint x="60" y="240" as="sourcePoint" />
            <Array as="points">
              <mxPoint x="90" y="240" />
            </Array>
          </mxGeometry>
        </mxCell>
        <mxCell id="vd4vNPMVGQsWvPr2XeSt-19" value="process" style="html=1;verticalAlign=bottom;endArrow=block;" edge="1" parent="vd4vNPMVGQsWvPr2XeSt-1" target="vd4vNPMVGQsWvPr2XeSt-18">
          <mxGeometry width="80" relative="1" as="geometry">
            <mxPoint x="60" y="300" as="sourcePoint" />
            <mxPoint x="414" y="296" as="targetPoint" />
          </mxGeometry>
        </mxCell>
        <mxCell id="vd4vNPMVGQsWvPr2XeSt-3" value="loopOnce" style="html=1;verticalAlign=bottom;endArrow=block;" edge="1" parent="1">
          <mxGeometry width="80" relative="1" as="geometry">
            <mxPoint x="80" y="660" as="sourcePoint" />
            <mxPoint x="160" y="660" as="targetPoint" />
          </mxGeometry>
        </mxCell>
        <mxCell id="vd4vNPMVGQsWvPr2XeSt-4" value="EventHub" style="shape=umlLifeline;perimeter=lifelinePerimeter;whiteSpace=wrap;html=1;container=1;collapsible=0;recursiveResize=0;outlineConnect=0;" vertex="1" parent="1">
          <mxGeometry x="349" y="600" width="100" height="600" as="geometry" />
        </mxCell>
        <mxCell id="vd4vNPMVGQsWvPr2XeSt-5" value="" style="html=1;points=[];perimeter=orthogonalPerimeter;" vertex="1" parent="vd4vNPMVGQsWvPr2XeSt-4">
          <mxGeometry x="45" y="80" width="10" height="80" as="geometry" />
        </mxCell>
        <mxCell id="vd4vNPMVGQsWvPr2XeSt-8" value="getEvents" style="html=1;verticalAlign=bottom;endArrow=block;exitX=0.976;exitY=0.059;exitDx=0;exitDy=0;exitPerimeter=0;" edge="1" parent="1" source="vd4vNPMVGQsWvPr2XeSt-2" target="vd4vNPMVGQsWvPr2XeSt-5">
          <mxGeometry width="80" relative="1" as="geometry">
            <mxPoint x="170" y="680" as="sourcePoint" />
            <mxPoint x="250" y="680" as="targetPoint" />
          </mxGeometry>
        </mxCell>
        <mxCell id="vd4vNPMVGQsWvPr2XeSt-10" value="return" style="html=1;verticalAlign=bottom;endArrow=open;dashed=1;endSize=8;entryX=0.98;entryY=0.285;entryDx=0;entryDy=0;entryPerimeter=0;" edge="1" parent="1">
          <mxGeometry relative="1" as="geometry">
            <mxPoint x="398.5" y="760.1000000000001" as="sourcePoint" />
            <mxPoint x="164.79999999999995" y="760.1000000000001" as="targetPoint" />
          </mxGeometry>
        </mxCell>
        <mxCell id="vd4vNPMVGQsWvPr2XeSt-17" value="InputDevice" style="shape=umlLifeline;perimeter=lifelinePerimeter;whiteSpace=wrap;html=1;container=1;collapsible=0;recursiveResize=0;outlineConnect=0;" vertex="1" parent="1">
          <mxGeometry x="480" y="600" width="100" height="600" as="geometry" />
        </mxCell>
        <mxCell id="vd4vNPMVGQsWvPr2XeSt-18" value="" style="html=1;points=[];perimeter=orthogonalPerimeter;" vertex="1" parent="vd4vNPMVGQsWvPr2XeSt-17">
          <mxGeometry x="45" y="290" width="10" height="50" as="geometry" />
        </mxCell>
        <mxCell id="vd4vNPMVGQsWvPr2XeSt-20" value="InputMapper&lt;br&gt;(如KeyboardInputMapper)" style="shape=umlLifeline;perimeter=lifelinePerimeter;whiteSpace=wrap;html=1;container=1;collapsible=0;recursiveResize=0;outlineConnect=0;" vertex="1" parent="1">
          <mxGeometry x="600" y="600" width="160" height="600" as="geometry" />
        </mxCell>
        <mxCell id="vd4vNPMVGQsWvPr2XeSt-21" value="" style="html=1;points=[];perimeter=orthogonalPerimeter;" vertex="1" parent="vd4vNPMVGQsWvPr2XeSt-20">
          <mxGeometry x="75" y="330" width="10" height="80" as="geometry" />
        </mxCell>
        <mxCell id="vd4vNPMVGQsWvPr2XeSt-43" value="" style="html=1;points=[];perimeter=orthogonalPerimeter;" vertex="1" parent="vd4vNPMVGQsWvPr2XeSt-20">
          <mxGeometry x="80" y="360" width="10" height="40" as="geometry" />
        </mxCell>
        <mxCell id="vd4vNPMVGQsWvPr2XeSt-44" value="processKey" style="edgeStyle=orthogonalEdgeStyle;html=1;align=left;spacingLeft=2;endArrow=block;rounded=0;entryX=1;entryY=0;" edge="1" target="vd4vNPMVGQsWvPr2XeSt-43" parent="vd4vNPMVGQsWvPr2XeSt-20">
          <mxGeometry relative="1" as="geometry">
            <mxPoint x="85" y="340" as="sourcePoint" />
            <Array as="points">
              <mxPoint x="115" y="340" />
            </Array>
          </mxGeometry>
        </mxCell>
        <mxCell id="vd4vNPMVGQsWvPr2XeSt-46" value="notifyKey" style="html=1;verticalAlign=bottom;endArrow=block;" edge="1" parent="vd4vNPMVGQsWvPr2XeSt-20" target="vd4vNPMVGQsWvPr2XeSt-45">
          <mxGeometry width="80" relative="1" as="geometry">
            <mxPoint x="90" y="400" as="sourcePoint" />
            <mxPoint x="246" y="399" as="targetPoint" />
          </mxGeometry>
        </mxCell>
        <mxCell id="vd4vNPMVGQsWvPr2XeSt-22" value="process" style="html=1;verticalAlign=bottom;endArrow=block;exitX=1.02;exitY=0.804;exitDx=0;exitDy=0;exitPerimeter=0;entryX=0.5;entryY=0;entryDx=0;entryDy=0;entryPerimeter=0;" edge="1" parent="1" source="vd4vNPMVGQsWvPr2XeSt-18" target="vd4vNPMVGQsWvPr2XeSt-21">
          <mxGeometry width="80" relative="1" as="geometry">
            <mxPoint x="540" y="930" as="sourcePoint" />
            <mxPoint x="650" y="930" as="targetPoint" />
          </mxGeometry>
        </mxCell>
        <mxCell id="vd4vNPMVGQsWvPr2XeSt-31" style="edgeStyle=orthogonalEdgeStyle;rounded=0;orthogonalLoop=1;jettySize=auto;html=1;exitX=0.5;exitY=0;exitDx=0;exitDy=0;entryX=0.5;entryY=1;entryDx=0;entryDy=0;" edge="1" parent="1" source="vd4vNPMVGQsWvPr2XeSt-23" target="vd4vNPMVGQsWvPr2XeSt-27">
          <mxGeometry relative="1" as="geometry" />
        </mxCell>
        <mxCell id="vd4vNPMVGQsWvPr2XeSt-23" value="InputDispatcher" style="swimlane;fontStyle=0;childLayout=stackLayout;horizontal=1;startSize=26;fillColor=none;horizontalStack=0;resizeParent=1;resizeParentMax=0;resizeLast=0;collapsible=1;marginBottom=0;" vertex="1" parent="1">
          <mxGeometry x="1350" y="800" width="140" height="52" as="geometry" />
        </mxCell>
        <mxCell id="vd4vNPMVGQsWvPr2XeSt-40" style="edgeStyle=orthogonalEdgeStyle;rounded=0;orthogonalLoop=1;jettySize=auto;html=1;exitX=0.5;exitY=0;exitDx=0;exitDy=0;entryX=0.5;entryY=1;entryDx=0;entryDy=0;" edge="1" parent="1" source="vd4vNPMVGQsWvPr2XeSt-27" target="vd4vNPMVGQsWvPr2XeSt-32">
          <mxGeometry relative="1" as="geometry" />
        </mxCell>
        <mxCell id="vd4vNPMVGQsWvPr2XeSt-27" value="InputDispatcherInterface" style="swimlane;fontStyle=0;childLayout=stackLayout;horizontal=1;startSize=26;fillColor=none;horizontalStack=0;resizeParent=1;resizeParentMax=0;resizeLast=0;collapsible=1;marginBottom=0;" vertex="1" parent="1">
          <mxGeometry x="1340" y="720" width="160" height="52" as="geometry" />
        </mxCell>
        <mxCell id="vd4vNPMVGQsWvPr2XeSt-32" value="InputListenerInterface" style="swimlane;fontStyle=0;childLayout=stackLayout;horizontal=1;startSize=26;fillColor=none;horizontalStack=0;resizeParent=1;resizeParentMax=0;resizeLast=0;collapsible=1;marginBottom=0;" vertex="1" parent="1">
          <mxGeometry x="1510" y="600" width="160" height="52" as="geometry" />
        </mxCell>
        <mxCell id="vd4vNPMVGQsWvPr2XeSt-41" style="edgeStyle=orthogonalEdgeStyle;rounded=0;orthogonalLoop=1;jettySize=auto;html=1;exitX=0.5;exitY=0;exitDx=0;exitDy=0;entryX=0.5;entryY=1;entryDx=0;entryDy=0;" edge="1" parent="1" source="vd4vNPMVGQsWvPr2XeSt-36" target="vd4vNPMVGQsWvPr2XeSt-32">
          <mxGeometry relative="1" as="geometry" />
        </mxCell>
        <mxCell id="vd4vNPMVGQsWvPr2XeSt-36" value="QueuedInputListener" style="swimlane;fontStyle=0;childLayout=stackLayout;horizontal=1;startSize=26;fillColor=none;horizontalStack=0;resizeParent=1;resizeParentMax=0;resizeLast=0;collapsible=1;marginBottom=0;" vertex="1" parent="1">
          <mxGeometry x="1670" y="720" width="140" height="52" as="geometry" />
        </mxCell>
        <mxCell id="vd4vNPMVGQsWvPr2XeSt-42" value="QueuedInputListener" style="shape=umlLifeline;perimeter=lifelinePerimeter;whiteSpace=wrap;html=1;container=1;collapsible=0;recursiveResize=0;outlineConnect=0;" vertex="1" parent="1">
          <mxGeometry x="790" y="600" width="130" height="600" as="geometry" />
        </mxCell>
        <mxCell id="vd4vNPMVGQsWvPr2XeSt-45" value="" style="html=1;points=[];perimeter=orthogonalPerimeter;" vertex="1" parent="vd4vNPMVGQsWvPr2XeSt-42">
          <mxGeometry x="60" y="390" width="10" height="30" as="geometry" />
        </mxCell>
        <mxCell id="vd4vNPMVGQsWvPr2XeSt-49" value="" style="html=1;points=[];perimeter=orthogonalPerimeter;" vertex="1" parent="vd4vNPMVGQsWvPr2XeSt-42">
          <mxGeometry x="60" y="450" width="10" height="40" as="geometry" />
        </mxCell>
        <mxCell id="vd4vNPMVGQsWvPr2XeSt-55" value="notify" style="html=1;verticalAlign=bottom;endArrow=block;entryX=-0.1;entryY=0.212;entryDx=0;entryDy=0;entryPerimeter=0;" edge="1" parent="vd4vNPMVGQsWvPr2XeSt-42" target="vd4vNPMVGQsWvPr2XeSt-53">
          <mxGeometry width="80" relative="1" as="geometry">
            <mxPoint x="70" y="490" as="sourcePoint" />
            <mxPoint x="210" y="490" as="targetPoint" />
          </mxGeometry>
        </mxCell>
        <mxCell id="vd4vNPMVGQsWvPr2XeSt-48" value="mArgsQueue.push" style="html=1;verticalAlign=bottom;endArrow=open;dashed=1;endSize=8;entryX=0.929;entryY=0.781;entryDx=0;entryDy=0;entryPerimeter=0;" edge="1" parent="1" target="vd4vNPMVGQsWvPr2XeSt-2">
          <mxGeometry x="0.1176" relative="1" as="geometry">
            <mxPoint x="850" y="1020" as="sourcePoint" />
            <mxPoint x="170" y="1020" as="targetPoint" />
            <mxPoint as="offset" />
          </mxGeometry>
        </mxCell>
        <mxCell id="vd4vNPMVGQsWvPr2XeSt-50" value="flush" style="html=1;verticalAlign=bottom;endArrow=block;" edge="1" parent="1" source="vd4vNPMVGQsWvPr2XeSt-2">
          <mxGeometry x="-0.1387" width="80" relative="1" as="geometry">
            <mxPoint x="170" y="1050" as="sourcePoint" />
            <mxPoint x="850" y="1050" as="targetPoint" />
            <mxPoint as="offset" />
          </mxGeometry>
        </mxCell>
        <mxCell id="vd4vNPMVGQsWvPr2XeSt-51" value="NotifyKeyArgs" style="shape=umlLifeline;perimeter=lifelinePerimeter;whiteSpace=wrap;html=1;container=1;collapsible=0;recursiveResize=0;outlineConnect=0;" vertex="1" parent="1">
          <mxGeometry x="950" y="600" width="100" height="600" as="geometry" />
        </mxCell>
        <mxCell id="vd4vNPMVGQsWvPr2XeSt-53" value="" style="html=1;points=[];perimeter=orthogonalPerimeter;" vertex="1" parent="vd4vNPMVGQsWvPr2XeSt-51">
          <mxGeometry x="45" y="480" width="10" height="50" as="geometry" />
        </mxCell>
        <mxCell id="vd4vNPMVGQsWvPr2XeSt-56" value="notifyKey" style="html=1;verticalAlign=bottom;endArrow=block;entryX=0.02;entryY=0.204;entryDx=0;entryDy=0;entryPerimeter=0;" edge="1" parent="vd4vNPMVGQsWvPr2XeSt-51" target="vd4vNPMVGQsWvPr2XeSt-54">
          <mxGeometry width="80" relative="1" as="geometry">
            <mxPoint x="50" y="530" as="sourcePoint" />
            <mxPoint x="130" y="530" as="targetPoint" />
          </mxGeometry>
        </mxCell>
        <mxCell id="vd4vNPMVGQsWvPr2XeSt-52" value="InputDispatcher" style="shape=umlLifeline;perimeter=lifelinePerimeter;whiteSpace=wrap;html=1;container=1;collapsible=0;recursiveResize=0;outlineConnect=0;" vertex="1" parent="1">
          <mxGeometry x="1080" y="600" width="100" height="600" as="geometry" />
        </mxCell>
        <mxCell id="vd4vNPMVGQsWvPr2XeSt-54" value="" style="html=1;points=[];perimeter=orthogonalPerimeter;" vertex="1" parent="vd4vNPMVGQsWvPr2XeSt-52">
          <mxGeometry x="45" y="520" width="10" height="50" as="geometry" />
        </mxCell>
        <mxCell id="vd4vNPMVGQsWvPr2XeSt-65" value="InputMapper" style="swimlane;fontStyle=0;childLayout=stackLayout;horizontal=1;startSize=26;fillColor=none;horizontalStack=0;resizeParent=1;resizeParentMax=0;resizeLast=0;collapsible=1;marginBottom=0;" vertex="1" parent="1">
          <mxGeometry x="1680" y="40" width="140" height="52" as="geometry" />
        </mxCell>
        <mxCell id="vd4vNPMVGQsWvPr2XeSt-82" style="edgeStyle=orthogonalEdgeStyle;rounded=0;orthogonalLoop=1;jettySize=auto;html=1;entryX=0.5;entryY=1;entryDx=0;entryDy=0;" edge="1" parent="1" source="vd4vNPMVGQsWvPr2XeSt-69" target="vd4vNPMVGQsWvPr2XeSt-65">
          <mxGeometry relative="1" as="geometry">
            <Array as="points">
              <mxPoint x="1570" y="110" />
              <mxPoint x="1750" y="110" />
            </Array>
          </mxGeometry>
        </mxCell>
        <mxCell id="vd4vNPMVGQsWvPr2XeSt-69" value="TouchInputMapper" style="swimlane;fontStyle=0;childLayout=stackLayout;horizontal=1;startSize=26;fillColor=none;horizontalStack=0;resizeParent=1;resizeParentMax=0;resizeLast=0;collapsible=1;marginBottom=0;" vertex="1" parent="1">
          <mxGeometry x="1500" y="200" width="140" height="52" as="geometry" />
        </mxCell>
        <mxCell id="vd4vNPMVGQsWvPr2XeSt-78" style="edgeStyle=orthogonalEdgeStyle;rounded=0;orthogonalLoop=1;jettySize=auto;html=1;" edge="1" parent="1" source="vd4vNPMVGQsWvPr2XeSt-73">
          <mxGeometry relative="1" as="geometry">
            <mxPoint x="1750" y="90" as="targetPoint" />
            <Array as="points">
              <mxPoint x="1480" y="110" />
              <mxPoint x="1750" y="110" />
              <mxPoint x="1750" y="90" />
            </Array>
          </mxGeometry>
        </mxCell>
        <mxCell id="vd4vNPMVGQsWvPr2XeSt-73" value="SwitchInputMapper" style="swimlane;fontStyle=0;childLayout=stackLayout;horizontal=1;startSize=26;fillColor=none;horizontalStack=0;resizeParent=1;resizeParentMax=0;resizeLast=0;collapsible=1;marginBottom=0;" vertex="1" parent="1">
          <mxGeometry x="1410" y="120" width="140" height="52" as="geometry" />
        </mxCell>
        <mxCell id="vd4vNPMVGQsWvPr2XeSt-79" style="edgeStyle=orthogonalEdgeStyle;rounded=0;orthogonalLoop=1;jettySize=auto;html=1;exitX=0.5;exitY=0;exitDx=0;exitDy=0;" edge="1" parent="1" source="vd4vNPMVGQsWvPr2XeSt-74">
          <mxGeometry relative="1" as="geometry">
            <mxPoint x="1750" y="92" as="targetPoint" />
            <Array as="points">
              <mxPoint x="1660" y="110" />
              <mxPoint x="1750" y="110" />
            </Array>
          </mxGeometry>
        </mxCell>
        <mxCell id="vd4vNPMVGQsWvPr2XeSt-74" value="VibratorInputMapper" style="swimlane;fontStyle=0;childLayout=stackLayout;horizontal=1;startSize=26;fillColor=none;horizontalStack=0;resizeParent=1;resizeParentMax=0;resizeLast=0;collapsible=1;marginBottom=0;" vertex="1" parent="1">
          <mxGeometry x="1590" y="120" width="140" height="52" as="geometry" />
        </mxCell>
        <mxCell id="vd4vNPMVGQsWvPr2XeSt-81" style="edgeStyle=orthogonalEdgeStyle;rounded=0;orthogonalLoop=1;jettySize=auto;html=1;entryX=0.5;entryY=1;entryDx=0;entryDy=0;" edge="1" parent="1" source="vd4vNPMVGQsWvPr2XeSt-75" target="vd4vNPMVGQsWvPr2XeSt-65">
          <mxGeometry relative="1" as="geometry">
            <Array as="points">
              <mxPoint x="2020" y="110" />
              <mxPoint x="1750" y="110" />
            </Array>
          </mxGeometry>
        </mxCell>
        <mxCell id="vd4vNPMVGQsWvPr2XeSt-75" value="JoystickInputMapper" style="swimlane;fontStyle=0;childLayout=stackLayout;horizontal=1;startSize=26;fillColor=none;horizontalStack=0;resizeParent=1;resizeParentMax=0;resizeLast=0;collapsible=1;marginBottom=0;" vertex="1" parent="1">
          <mxGeometry x="1960" y="120" width="140" height="52" as="geometry" />
        </mxCell>
        <mxCell id="vd4vNPMVGQsWvPr2XeSt-80" style="edgeStyle=orthogonalEdgeStyle;rounded=0;orthogonalLoop=1;jettySize=auto;html=1;exitX=0.5;exitY=0;exitDx=0;exitDy=0;" edge="1" parent="1" source="vd4vNPMVGQsWvPr2XeSt-76">
          <mxGeometry relative="1" as="geometry">
            <mxPoint x="1750" y="90" as="targetPoint" />
            <Array as="points">
              <mxPoint x="1840" y="110" />
              <mxPoint x="1750" y="110" />
            </Array>
          </mxGeometry>
        </mxCell>
        <mxCell id="vd4vNPMVGQsWvPr2XeSt-76" value="KeyboardInputMapper" style="swimlane;fontStyle=0;childLayout=stackLayout;horizontal=1;startSize=26;fillColor=none;horizontalStack=0;resizeParent=1;resizeParentMax=0;resizeLast=0;collapsible=1;marginBottom=0;" vertex="1" parent="1">
          <mxGeometry x="1770" y="120" width="148" height="52" as="geometry" />
        </mxCell>
        <mxCell id="vd4vNPMVGQsWvPr2XeSt-83" style="edgeStyle=orthogonalEdgeStyle;rounded=0;orthogonalLoop=1;jettySize=auto;html=1;entryX=0.5;entryY=1;entryDx=0;entryDy=0;" edge="1" parent="1" source="vd4vNPMVGQsWvPr2XeSt-77" target="vd4vNPMVGQsWvPr2XeSt-65">
          <mxGeometry relative="1" as="geometry">
            <Array as="points">
              <mxPoint x="1940" y="110" />
              <mxPoint x="1750" y="110" />
            </Array>
          </mxGeometry>
        </mxCell>
        <mxCell id="vd4vNPMVGQsWvPr2XeSt-77" value="RotaryEncoderInputMapper" style="swimlane;fontStyle=0;childLayout=stackLayout;horizontal=1;startSize=26;fillColor=none;horizontalStack=0;resizeParent=1;resizeParentMax=0;resizeLast=0;collapsible=1;marginBottom=0;" vertex="1" parent="1">
          <mxGeometry x="1850" y="200" width="180" height="52" as="geometry" />
        </mxCell>
        <mxCell id="vd4vNPMVGQsWvPr2XeSt-88" style="edgeStyle=orthogonalEdgeStyle;rounded=0;orthogonalLoop=1;jettySize=auto;html=1;exitX=0.5;exitY=0;exitDx=0;exitDy=0;entryX=0.5;entryY=1;entryDx=0;entryDy=0;" edge="1" parent="1" source="vd4vNPMVGQsWvPr2XeSt-84" target="vd4vNPMVGQsWvPr2XeSt-69">
          <mxGeometry relative="1" as="geometry">
            <Array as="points">
              <mxPoint x="1677" y="267" />
              <mxPoint x="1570" y="267" />
            </Array>
          </mxGeometry>
        </mxCell>
        <mxCell id="vd4vNPMVGQsWvPr2XeSt-84" value="MultiTouchInputMapper" style="swimlane;fontStyle=0;childLayout=stackLayout;horizontal=1;startSize=26;fillColor=none;horizontalStack=0;resizeParent=1;resizeParentMax=0;resizeLast=0;collapsible=1;marginBottom=0;" vertex="1" parent="1">
          <mxGeometry x="1600" y="280" width="154" height="52" as="geometry" />
        </mxCell>
        <mxCell id="vd4vNPMVGQsWvPr2XeSt-87" style="edgeStyle=orthogonalEdgeStyle;rounded=0;orthogonalLoop=1;jettySize=auto;html=1;exitX=0.5;exitY=0;exitDx=0;exitDy=0;entryX=0.5;entryY=1;entryDx=0;entryDy=0;" edge="1" parent="1" source="vd4vNPMVGQsWvPr2XeSt-85" target="vd4vNPMVGQsWvPr2XeSt-69">
          <mxGeometry relative="1" as="geometry">
            <Array as="points">
              <mxPoint x="1469" y="267" />
              <mxPoint x="1570" y="267" />
            </Array>
          </mxGeometry>
        </mxCell>
        <mxCell id="vd4vNPMVGQsWvPr2XeSt-85" value="SingerTouchInputMapper" style="swimlane;fontStyle=0;childLayout=stackLayout;horizontal=1;startSize=26;fillColor=none;horizontalStack=0;resizeParent=1;resizeParentMax=0;resizeLast=0;collapsible=1;marginBottom=0;" vertex="1" parent="1">
          <mxGeometry x="1388" y="280" width="162" height="52" as="geometry" />
        </mxCell>
        <mxCell id="vd4vNPMVGQsWvPr2XeSt-97" style="edgeStyle=orthogonalEdgeStyle;rounded=0;orthogonalLoop=1;jettySize=auto;html=1;exitX=0.5;exitY=0;exitDx=0;exitDy=0;" edge="1" parent="1" source="vd4vNPMVGQsWvPr2XeSt-90">
          <mxGeometry relative="1" as="geometry">
            <mxPoint x="1750.166666666667" y="90" as="targetPoint" />
          </mxGeometry>
        </mxCell>
        <mxCell id="vd4vNPMVGQsWvPr2XeSt-90" value="CursorInputMapper" style="swimlane;fontStyle=0;childLayout=stackLayout;horizontal=1;startSize=26;fillColor=none;horizontalStack=0;resizeParent=1;resizeParentMax=0;resizeLast=0;collapsible=1;marginBottom=0;" vertex="1" parent="1">
          <mxGeometry x="1680" y="200" width="140" height="52" as="geometry" />
        </mxCell>
        <mxCell id="vd4vNPMVGQsWvPr2XeSt-96" style="edgeStyle=orthogonalEdgeStyle;rounded=0;orthogonalLoop=1;jettySize=auto;html=1;exitX=0.5;exitY=0;exitDx=0;exitDy=0;entryX=0.5;entryY=1;entryDx=0;entryDy=0;" edge="1" parent="1" source="vd4vNPMVGQsWvPr2XeSt-94" target="vd4vNPMVGQsWvPr2XeSt-65">
          <mxGeometry relative="1" as="geometry">
            <Array as="points">
              <mxPoint x="2140" y="110" />
              <mxPoint x="1750" y="110" />
            </Array>
          </mxGeometry>
        </mxCell>
        <mxCell id="vd4vNPMVGQsWvPr2XeSt-94" value="ExternalStylusInputMapper" style="swimlane;fontStyle=0;childLayout=stackLayout;horizontal=1;startSize=26;fillColor=none;horizontalStack=0;resizeParent=1;resizeParentMax=0;resizeLast=0;collapsible=1;marginBottom=0;" vertex="1" parent="1">
          <mxGeometry x="2050" y="200" width="180" height="52" as="geometry" />
        </mxCell>
      </root>
    </mxGraphModel>
  </diagram>
</mxfile>
